<?xml version="1.0" encoding="UTF-8" standalone="no"?>
<!-- Generator: Adobe Illustrator 22.0.1, SVG Export Plug-In . SVG Version: 6.00 Build 0)  -->

<svg
   xmlns:dc="http://purl.org/dc/elements/1.1/"
   xmlns:cc="http://creativecommons.org/ns#"
   xmlns:rdf="http://www.w3.org/1999/02/22-rdf-syntax-ns#"
   xmlns:svg="http://www.w3.org/2000/svg"
   xmlns="http://www.w3.org/2000/svg"
   xmlns:sodipodi="http://sodipodi.sourceforge.net/DTD/sodipodi-0.dtd"
   xmlns:inkscape="http://www.inkscape.org/namespaces/inkscape"
   version="1.1"
   id="Camada_1"
   x="0px"
   y="0px"
   viewBox="0 0 1050.54 872.72797"
   xml:space="preserve"
   sodipodi:docname="meraki_logo.svg"
   inkscape:version="0.92.4 (5da689c313, 2019-01-14)"
   width="1050.54"
   height="872.72797"><metadata
   id="metadata47"><rdf:RDF><cc:Work
       rdf:about=""><dc:format>image/svg+xml</dc:format><dc:type
         rdf:resource="http://purl.org/dc/dcmitype/StillImage" /><dc:title></dc:title></cc:Work></rdf:RDF></metadata><defs
   id="defs45" /><sodipodi:namedview
   pagecolor="#ffffff"
   bordercolor="#666666"
   borderopacity="1"
   objecttolerance="10"
   gridtolerance="10"
   guidetolerance="10"
   inkscape:pageopacity="0"
   inkscape:pageshadow="2"
   inkscape:window-width="1920"
   inkscape:window-height="1017"
   id="namedview43"
   showgrid="false"
   inkscape:zoom="0.6015625"
   inkscape:cx="363.1507"
   inkscape:cy="302.52856"
   inkscape:window-x="-8"
   inkscape:window-y="-8"
   inkscape:window-maximized="1"
   inkscape:current-layer="Camada_1" />
<style
   type="text/css"
   id="style10">
	.st0{fill:url(#SVGID_1_);}
	.st1{fill:url(#SVGID_2_);}
	.st2{fill:url(#SVGID_3_);}
	.st3{fill:url(#SVGID_4_);}
</style>

<flowRoot
   xml:space="preserve"
   id="flowRoot49"
   style="font-style:normal;font-variant:normal;font-weight:normal;font-stretch:normal;font-size:40px;line-height:1.25;font-family:'Fun City Level 2';-inkscape-font-specification:'Fun City Level 2, ';letter-spacing:0px;word-spacing:0px;fill:#000000;fill-opacity:1;stroke:none"
   transform="translate(-434.73,-38.345457)"><flowRegion
     id="flowRegion51"
     style="font-style:normal;font-variant:normal;font-weight:normal;font-stretch:normal;font-family:'Fun City Level 2';-inkscape-font-specification:'Fun City Level 2, '"><rect
       id="rect53"
       width="884.36365"
       height="204.46753"
       x="468.77924"
       y="812.36365"
       style="font-style:normal;font-variant:normal;font-weight:normal;font-stretch:normal;font-family:'Fun City Level 2';-inkscape-font-specification:'Fun City Level 2, '" /></flowRegion><flowPara
     id="flowPara55" /></flowRoot><flowRoot
   xml:space="preserve"
   id="flowRoot57"
   style="font-style:normal;font-weight:normal;font-size:40px;line-height:1.25;font-family:sans-serif;letter-spacing:0px;word-spacing:0px;fill:#000000;fill-opacity:1;stroke:none"
   transform="translate(-434.73,-38.345457)"><flowRegion
     id="flowRegion59"><rect
       id="rect61"
       width="566.85712"
       height="212.77922"
       x="635.013"
       y="824" /></flowRegion><flowPara
     id="flowPara63" /></flowRoot><g
   id="g100"
   transform="translate(-434.73,-38.345457)"><g
     transform="translate(-22.4,-81.454543)"
     id="g40">
	<linearGradient
   y2="1054.5671"
   x2="672.55292"
   y1="42.6306"
   x1="681.1651"
   gradientUnits="userSpaceOnUse"
   id="SVGID_1_">
		<stop
   id="stop12"
   style="stop-color:#245E52"
   offset="0" />
		<stop
   id="stop14"
   style="stop-color:#368C7E"
   offset="0.7436" />
	</linearGradient>
	<path
   inkscape:connector-curvature="0"
   style="fill:url(#SVGID_1_)"
   id="path17"
   d="m 676.9,979 v 0 c -77,0 -139.4,-62.4 -139.4,-139.4 v -580 c 0,-77 62.4,-139.4 139.4,-139.4 v 0 c 77,0 139.4,62.4 139.4,139.4 v 580 c 0,77 -62.5,139.4 -139.4,139.4 z"
   class="st0" />
	<linearGradient
   y2="1106.0127"
   x2="1289.5051"
   y1="46.7089"
   x1="1285.1991"
   gradientUnits="userSpaceOnUse"
   id="SVGID_2_">
		<stop
   id="stop19"
   style="stop-color:#3FBD97"
   offset="0" />
		<stop
   id="stop21"
   style="stop-color:#39AB89"
   offset="1" />
	</linearGradient>
	<path
   inkscape:connector-curvature="0"
   style="fill:url(#SVGID_2_)"
   id="path24"
   d="m 1287.2,978.7 v 0 c -77,0 -139.4,-62.4 -139.4,-139.4 v -580 c 0,-77 62.4,-139.4 139.4,-139.4 v 0 c 77,0 139.4,62.4 139.4,139.4 v 580 c 0.1,77 -62.4,139.4 -139.4,139.4 z"
   class="st1" />
	<linearGradient
   y2="762.57062"
   x2="1149.661"
   y1="64.980301"
   x1="514.5094"
   gradientUnits="userSpaceOnUse"
   id="SVGID_3_">
		<stop
   id="stop26"
   style="stop-color:#2C7367"
   offset="0" />
		<stop
   id="stop28"
   style="stop-color:#3D9E8E"
   offset="0.6444" />
	</linearGradient>
	<path
   inkscape:connector-curvature="0"
   style="fill:url(#SVGID_3_)"
   id="path31"
   d="m 1067.9,648.8 v 0 c -54.4,54.4 -142.7,54.4 -197.2,0 l -291,-291 c -54.4,-54.4 -54.4,-142.7 0,-197.2 v 0 c 54.4,-54.4 142.7,-54.4 197.2,0 l 291,291 c 54.4,54.5 54.4,142.7 0,197.2 z"
   class="st2" />
	<linearGradient
   y2="753.86981"
   x2="810.98492"
   y1="75.656998"
   x1="1454.7488"
   gradientUnits="userSpaceOnUse"
   id="SVGID_4_">
		<stop
   id="stop33"
   style="stop-color:#36A383"
   offset="0.1231" />
		<stop
   id="stop35"
   style="stop-color:#3CB592"
   offset="0.7726" />
	</linearGradient>
	<path
   inkscape:connector-curvature="0"
   style="fill:url(#SVGID_4_)"
   id="path38"
   d="m 880.9,658.2 v 0 c 54.4,54.4 160.2,45 214.6,-9.4 l 291,-291 c 54.4,-54.4 54.4,-142.7 0,-197.2 v 0 c -54.4,-54.4 -142.7,-54.4 -197.2,0 l -291,291 c -54.4,54.5 -71.9,152.2 -17.4,206.6 z"
   class="st3" />
</g><g
     id="text67"
     style="font-style:normal;font-weight:normal;font-size:192px;line-height:1.25;font-family:sans-serif;letter-spacing:0px;word-spacing:0px;fill:#000000;fill-opacity:1;stroke:none"
     aria-label="MERAKI"><path
       id="path63"
       style="font-style:normal;font-variant:normal;font-weight:normal;font-stretch:normal;font-size:192px;font-family:'Fun City Level 2';-inkscape-font-specification:'Fun City Level 2, '"
       d="m 569.13,899.55342 c 0,6.336 5.184,11.52 11.52,11.52 6.336,0 11.52,-5.184 11.52,-11.52 v -115.2 c 0,-9.984 -12.48,-15.36 -19.776,-8.064 l -58.944,58.944 -59.136,-59.136 c -2.496,-2.112 -5.184,-3.264 -8.064,-3.264 -6.336,0 -11.52,5.184 -11.52,11.52 v 115.2 c 0,6.336 5.184,11.52 11.52,11.52 6.336,0 11.52,-5.184 11.52,-11.52 v -87.36 l 47.424,47.616 c 2.112,2.112 4.992,3.264 8.256,3.264 3.264,0 5.952,-1.152 8.064,-3.264 l 47.616,-47.616 z"
       inkscape:connector-curvature="0" /><path
       id="path65"
       style="font-style:normal;font-variant:normal;font-weight:normal;font-stretch:normal;font-size:192px;font-family:'Fun City Level 2';-inkscape-font-specification:'Fun City Level 2, '"
       d="m 664.98,899.55342 c 0,6.336 5.184,11.52 11.52,11.52 h 96 c 6.336,0 11.52,-5.184 11.52,-11.52 0,-6.336 -5.184,-11.52 -11.52,-11.52 h -84.48 v -34.56 h 65.28 c 6.336,0 11.52,-5.184 11.52,-11.52 0,-6.336 -5.184,-11.52 -11.52,-11.52 h -65.28 v -34.56 h 84.48 c 6.336,0 11.52,-5.184 11.52,-11.52 0,-6.336 -5.184,-11.52 -11.52,-11.52 h -96 c -6.336,0 -11.52,5.184 -11.52,11.52 z"
       inkscape:connector-curvature="0" /><path
       id="path67"
       style="font-style:normal;font-variant:normal;font-weight:normal;font-stretch:normal;font-size:192px;font-family:'Fun City Level 2';-inkscape-font-specification:'Fun City Level 2, '"
       d="m 853.23,899.55342 c 0,6.336 5.184,11.52 11.52,11.52 6.336,0 11.52,-5.184 11.52,-11.52 v -36.48 h 31.68 l 44.736,44.736 c 6.336,7.104 20.16,1.728 19.584,-8.256 0,-2.88 -1.152,-5.568 -3.264,-8.064 l -31.296,-31.104 c 8.832,-3.264 15.936,-8.64 21.504,-16.32 5.568,-7.872 8.256,-16.512 8.256,-26.112 0,-12.288 -4.416,-22.848 -13.056,-31.488 -8.64,-8.832 -19.008,-13.44 -31.104,-13.632 h -58.56 c -6.336,0 -11.52,5.184 -11.52,11.52 z m 70.08,-103.68 c 5.76,0.192 10.752,2.496 14.784,6.912 4.224,4.224 6.336,9.216 6.336,15.168 0,5.952 -2.112,11.136 -6.528,15.552 -4.416,4.416 -9.6,6.528 -15.552,6.528 h -46.08 v -44.16 z"
       inkscape:connector-curvature="0" /><path
       id="path69"
       style="font-style:normal;font-variant:normal;font-weight:normal;font-stretch:normal;font-size:192px;font-family:'Fun City Level 2';-inkscape-font-specification:'Fun City Level 2, '"
       d="m 1035.144,893.98542 c -0.96,1.728 -1.344,3.456 -1.344,5.568 0,6.336 5.184,11.52 11.52,11.52 4.416,0 7.872,-2.304 10.56,-7.104 l 12.48,-21.696 h 86.592 l 12.48,21.696 c 2.688,4.8 6.336,7.104 10.752,7.104 6.336,0 11.52,-5.184 11.52,-11.52 0,-1.728 -0.384,-3.456 -1.344,-5.568 l -66.624,-115.584 c -4.8,-7.488 -15.168,-7.488 -19.968,0 z m 106.56,-34.752 h -60.096 l 30.144,-52.032 z"
       inkscape:connector-curvature="0" /><path
       id="path71"
       style="font-style:normal;font-variant:normal;font-weight:normal;font-stretch:normal;font-size:192px;font-family:'Fun City Level 2';-inkscape-font-specification:'Fun City Level 2, '"
       d="m 1254.855,899.55342 c -0.768,9.984 13.248,15.36 19.584,8.256 l 49.536,-49.536 49.344,49.536 c 2.112,2.112 4.992,3.264 8.256,3.264 6.336,0 11.52,-5.184 11.52,-11.52 0,-3.072 -1.152,-5.76 -3.456,-8.064 l -49.344,-49.536 49.344,-49.344 c 4.608,-4.608 4.608,-11.904 0,-16.32 -4.416,-4.608 -11.712,-4.608 -16.32,0 l -95.424,95.424 v -87.36 c 0,-6.336 -5.184,-11.52 -11.52,-11.52 -6.336,0 -11.52,5.184 -11.52,11.52 z"
       inkscape:connector-curvature="0" /><path
       id="path73"
       style="font-style:normal;font-variant:normal;font-weight:normal;font-stretch:normal;font-size:192px;font-family:'Fun City Level 2';-inkscape-font-specification:'Fun City Level 2, '"
       d="m 1462.23,899.55342 c 0,6.336 5.184,11.52 11.52,11.52 6.336,0 11.52,-5.184 11.52,-11.52 v -115.2 c 0,-6.336 -5.184,-11.52 -11.52,-11.52 -6.336,0 -11.52,5.184 -11.52,11.52 z"
       inkscape:connector-curvature="0" /></g></g>
<flowRoot
   xml:space="preserve"
   id="flowRoot69"
   style="font-style:normal;font-weight:normal;font-size:40px;line-height:1.25;font-family:sans-serif;letter-spacing:0px;word-spacing:0px;fill:#000000;fill-opacity:1;stroke:none"
   transform="translate(-434.73,-38.345457)"><flowRegion
     id="flowRegion71"><rect
       id="rect73"
       width="207.79221"
       height="66.493507"
       x="782.96106"
       y="956.987" /></flowRegion><flowPara
     id="flowPara75" /></flowRoot><flowRoot
   xml:space="preserve"
   id="flowRoot77"
   style="font-style:normal;font-weight:normal;font-size:40px;line-height:1.25;font-family:sans-serif;letter-spacing:0px;word-spacing:0px;fill:#000000;fill-opacity:1;stroke:none"
   transform="translate(-434.73,-38.345457)"><flowRegion
     id="flowRegion79"><rect
       id="rect81"
       width="94.75325"
       height="44.883118"
       x="897.66235"
       y="956.987" /></flowRegion><flowPara
     id="flowPara83" /></flowRoot></svg>